<svg viewBox="0 0 12 12" fill="none" xmlns="http://www.w3.org/2000/svg">
<g clip-path="url(#clip0_11778_80717)">
<path d="M4.5543 0C2.09682 0.620907 0.232831 2.78855 0 5.43862H2.50492C2.61545 3.5002 3.29858 1.58996 4.5543 0Z" fill="currentColor"/>
<path d="M6.00055 11.9693C4.52951 10.468 3.73025 8.53393 3.60278 6.5625H8.39831C8.27086 8.53393 7.47159 10.468 6.00055 11.9693Z" fill="currentColor"/>
<path d="M2.50492 6.5625H0C0.232831 9.21256 2.09681 11.3802 4.55429 12.0012C3.29857 10.4112 2.61544 8.5009 2.50492 6.5625Z" fill="currentColor"/>
<path d="M9.49492 6.5625C9.38439 8.5009 8.70129 10.4112 7.44556 12.0012C9.90302 11.3802 11.767 9.21256 11.9999 6.5625H9.49492Z" fill="currentColor"/>
<path d="M3.60278 5.43802C3.73025 3.46656 4.52951 1.53259 6.00055 0.03125C7.47159 1.53259 8.27086 3.46656 8.39831 5.43802H3.60278Z" fill="currentColor"/>
<path d="M7.44556 0C8.70129 1.58996 9.38439 3.5002 9.49492 5.43862H11.9999C11.767 2.78855 9.90302 0.620907 7.44556 0Z" fill="currentColor"/>
</g>
<defs>
<clipPath id="clip0_11778_80717">
<rect width="100%" height="100%" fill="currentColor"/>
</clipPath>
</defs>
</svg>
