<svg viewBox="0 0 12 12" fill="none" xmlns="http://www.w3.org/2000/svg">
<g clip-path="url(#clip0_11523_87102)">
<path d="M10.1086 7.03101C10.1984 6.69456 10.2458 6.34821 10.2496 6.00001C10.2458 5.65181 10.1984 5.30545 10.1086 4.96901L11.3086 4.08601C11.4077 4.01298 11.4763 3.90598 11.5014 3.7855C11.5265 3.66502 11.5063 3.53951 11.4446 3.43301L10.9446 2.56701C10.8831 2.46036 10.7844 2.38017 10.6674 2.34178C10.5504 2.3034 10.4234 2.30954 10.3106 2.35901L8.95363 2.95901C8.4505 2.47343 7.83478 2.12022 7.16163 1.93101L6.99963 0.445009C6.98604 0.32215 6.92741 0.20868 6.83508 0.126501C6.74274 0.0443225 6.62324 -0.000740652 6.49963 9.21001e-06H5.49963C5.37602 -0.000740652 5.25652 0.0443225 5.16418 0.126501C5.07185 0.20868 5.01323 0.32215 4.99963 0.445009L4.83763 1.93101C4.16462 2.11863 3.54859 2.4701 3.04463 2.95401L1.68763 2.35401C1.57488 2.30454 1.44785 2.2984 1.33086 2.33678C1.21387 2.37517 1.11516 2.45536 1.05363 2.56201L0.553631 3.42801C0.491963 3.53451 0.47174 3.66002 0.496833 3.7805C0.521926 3.90098 0.590572 4.00798 0.689631 4.08101L1.88963 4.96401C1.79976 5.30212 1.75273 5.65018 1.74963 6.00001C1.75347 6.34821 1.80084 6.69456 1.89063 7.03101L0.690631 7.91401C0.591572 7.98704 0.522926 8.09403 0.497833 8.21452C0.47274 8.335 0.492963 8.46051 0.554631 8.56701L1.05463 9.43301C1.09851 9.50902 1.16163 9.57213 1.23764 9.61602C1.31365 9.6599 1.39987 9.68301 1.48763 9.68301C1.55645 9.68265 1.62448 9.66836 1.68763 9.64101L3.04463 9.04101C3.54859 9.52492 4.16462 9.87639 4.83763 10.064L4.99963 11.555C5.01323 11.6779 5.07185 11.7913 5.16418 11.8735C5.25652 11.9557 5.37602 12.0008 5.49963 12H6.49963C6.62324 12.0008 6.74274 11.9557 6.83508 11.8735C6.92741 11.7913 6.98604 11.6779 6.99963 11.555L7.16463 10.069C7.83657 9.88094 8.45152 9.52949 8.95463 9.04601L10.3116 9.64601C10.3748 9.67336 10.4428 9.68765 10.5116 9.68801C10.5994 9.68801 10.6856 9.6649 10.7616 9.62102C10.8376 9.57714 10.9007 9.51402 10.9446 9.43801L11.4446 8.57201C11.5063 8.46551 11.5265 8.34 11.5014 8.21952C11.4763 8.09903 11.4077 7.99204 11.3086 7.91901L10.1086 7.03101ZM5.99963 8.00001C5.60407 8.00001 5.21739 7.88271 4.88849 7.66295C4.55959 7.44319 4.30325 7.13083 4.15187 6.76538C4.0005 6.39992 3.96089 5.99779 4.03806 5.60983C4.11523 5.22187 4.30571 4.8655 4.58542 4.5858C4.86512 4.30609 5.22149 4.11561 5.60945 4.03844C5.99741 3.96127 6.39955 4.00087 6.765 4.15225C7.13045 4.30363 7.44281 4.55997 7.66257 4.88887C7.88233 5.21777 7.99963 5.60445 7.99963 6.00001C7.99963 6.53044 7.78892 7.03915 7.41385 7.41422C7.03877 7.7893 6.53006 8.00001 5.99963 8.00001Z" fill="currentColor"/>
</g>
<defs>
<clipPath id="clip0_11523_87102">
<rect width="100%" height="100%" fill="currentColor"/>
</clipPath>
</defs>
</svg>
